{
  "accessors": [
    {
      "bufferView": 2,
      "componentType": 5126,
      "count": 1466,
      "max": [
        2.0827291011810303,
        2.0612998008728027,
        1.1980082988739014
      ],
      "min": [
        -1.1980082988739014,
        0.0,
        -1.1980082988739014
      ],
      "type": "VEC3"
    },
    {
      "bufferView": 2,
      "byteOffset": 17592,
      "componentType": 5126,
      "count": 1466,
      "max": [
        0.9999998807907104,
        1.0,
        1.0
      ],
      "min": [
        -0.9999274015426636,
        -1.0,
        -1.0
      ],
      "type": "VEC3"
    },
    {
      "bufferView": 3,
      "componentType": 5126,
      "count": 1466,
      "max": [
        0.8732974529266357,
        0.9974583983421326,
        0.999536395072937,
        -1.0
      ],
      "min": [
        -0.9998597502708435,
        -0.9961572885513306,
        -0.9999462962150574,
        -1.0
      ],
      "type": "VEC4"
    },
    {
      "bufferView": 1,
      "componentType": 5126,
      "count": 1466,
      "max": [
        0.955759584903717,
        1.0
      ],
      "min": [
        0.0,
        0.0
      ],
      "type": "VEC2"
    },
    {
      "bufferView": 1,
      "byteOffset": 11728,
      "componentType": 5126,
      "count": 1466,
      "max": [
        0.955759584903717,
        1.0
      ],
      "min": [
        0.0,
        0.0
      ],
      "type": "VEC2"
    },
    {
      "bufferView": 1,
      "byteOffset": 23456,
      "componentType": 5126,
      "count": 1466,
      "max": [
        0.955759584903717,
        1.0
      ],
      "min": [
        0.0,
        0.0
      ],
      "type": "VEC2"
    },
    {
      "bufferView": 1,
      "byteOffset": 35184,
      "componentType": 5126,
      "count": 1466,
      "max": [
        0.955759584903717,
        1.0
      ],
      "min": [
        0.0,
        0.0
      ],
      "type": "VEC2"
    },
    {
      "bufferView": 0,
      "componentType": 5125,
      "count": 7506,
      "type": "SCALAR"
    },
    {
      "bufferView": 2,
      "byteOffset": 35184,
      "componentType": 5126,
      "count": 96,
      "max": [
        0.9881675243377686,
        0.6462973952293396,
        0.9881675243377686
      ],
      "min": [
        -0.9881675243377686,
        0.6462971568107605,
        -0.9881675243377686
      ],
      "type": "VEC3"
    },
    {
      "bufferView": 2,
      "byteOffset": 36336,
      "componentType": 5126,
      "count": 96,
      "max": [
        1.2515278058344848e-06,
        1.0,
        3.713632565904845e-07
      ],
      "min": [
        -1.2515511116362177e-06,
        1.0,
        -3.7136376818125427e-07
      ],
      "type": "VEC3"
    },
    {
      "bufferView": 3,
      "byteOffset": 23456,
      "componentType": 5126,
      "count": 96,
      "max": [
        -0.7730064988136292,
        1.1528854884090833e-06,
        -0.6343944072723389,
        -1.0
      ],
      "min": [
        -0.7730095386505127,
        -9.407906418346101e-07,
        -0.6343982219696045,
        -1.0
      ],
      "type": "VEC4"
    },
    {
      "bufferView": 1,
      "byteOffset": 46912,
      "componentType": 5126,
      "count": 96,
      "max": [
        0.6707437634468079,
        0.7167478799819946
      ],
      "min": [
        0.3182438611984253,
        0.2733035683631897
      ],
      "type": "VEC2"
    },
    {
      "bufferView": 1,
      "byteOffset": 47680,
      "componentType": 5126,
      "count": 96,
      "max": [
        0.6707437634468079,
        0.7167478799819946
      ],
      "min": [
        0.3182438611984253,
        0.2733035683631897
      ],
      "type": "VEC2"
    },
    {
      "bufferView": 1,
      "byteOffset": 48448,
      "componentType": 5126,
      "count": 96,
      "max": [
        0.6707437634468079,
        0.7167478799819946
      ],
      "min": [
        0.3182438611984253,
        0.2733035683631897
      ],
      "type": "VEC2"
    },
    {
      "bufferView": 1,
      "byteOffset": 49216,
      "componentType": 5126,
      "count": 96,
      "max": [
        0.6707437634468079,
        0.7167478799819946
      ],
      "min": [
        0.3182438611984253,
        0.2733035683631897
      ],
      "type": "VEC2"
    },
    {
      "bufferView": 0,
      "byteOffset": 30024,
      "componentType": 5125,
      "count": 96,
      "type": "SCALAR"
    },
    {
      "bufferView": 2,
      "byteOffset": 37488,
      "componentType": 5126,
      "count": 129,
      "max": [
        9.866022109985352,
        12.785709381103516,
        9.866022109985352
      ],
      "min": [
        -9.866022109985352,
        0.0,
        -9.866022109985352
      ],
      "type": "VEC3"
    },
    {
      "bufferView": 2,
      "byteOffset": 39036,
      "componentType": 5126,
      "count": 129,
      "max": [
        1.0,
        1.0,
        1.0
      ],
      "min": [
        0.0,
        0.0,
        -0.0
      ],
      "type": "VEC3"
    },
    {
      "bufferView": 1,
      "byteOffset": 49984,
      "componentType": 5126,
      "count": 129,
      "max": [
        1.0,
        1.0
      ],
      "min": [
        0.0,
        -1.1920928955078125e-07
      ],
      "type": "VEC2"
    },
    {
      "bufferView": 0,
      "byteOffset": 30408,
      "componentType": 5125,
      "count": 648,
      "type": "SCALAR"
    }
  ],
  "asset": {
    "extras": {
      "author": "TadenStar (https://sketchfab.com/tadenstar)",
      "license": "CC-BY-4.0 (http://creativecommons.org/licenses/by/4.0/)",
      "source": "https://sketchfab.com/3d-models/kintsugi-cup-of-coffee-34c0f28a77844ec2883e5156f5f1ac29",
      "title": "Kintsugi cup of coffee"
    },
    "generator": "Sketchfab-12.68.0",
    "version": "2.0"
  },
  "bufferViews": [
    {
      "buffer": 0,
      "byteLength": 33000,
      "name": "floatBufferViews",
      "target": 34963
    },
    {
      "buffer": 0,
      "byteLength": 51016,
      "byteOffset": 33000,
      "byteStride": 8,
      "name": "floatBufferViews",
      "target": 34962
    },
    {
      "buffer": 0,
      "byteLength": 40584,
      "byteOffset": 84016,
      "byteStride": 12,
      "name": "floatBufferViews",
      "target": 34962
    },
    {
      "buffer": 0,
      "byteLength": 24992,
      "byteOffset": 124600,
      "byteStride": 16,
      "name": "floatBufferViews",
      "target": 34962
    }
  ],
  "buffers": [
    {
      "byteLength": 149592,
      "uri": "scene.bin"
    }
  ],
  "extensionsUsed": [
    "KHR_materials_clearcoat"
  ],
  "images": [
    {
      "uri": "textures/Kintsugi_baseColor.png"
    },
    {
      "uri": "textures/Kintsugi_metallicRoughness.png"
    },
    {
      "uri": "textures/Kintsugi_normal.png"
    },
    {
      "uri": "textures/Kintsugi_clearcoat.png"
    },
    {
      "uri": "textures/Kintsugi_clearcoat_roughness.png"
    },
    {
      "uri": "textures/Kintsugi_clearcoat_normal.png"
    },
    {
      "uri": "textures/Coffee_baseColor.png"
    },
    {
      "uri": "textures/Coffee_metallicRoughness.png"
    }
  ],
  "materials": [
    {
      "doubleSided": true,
      "extensions": {
        "KHR_materials_clearcoat": {
          "clearcoatFactor": 1.0,
          "clearcoatNormalTexture": {
            "index": 5
          },
          "clearcoatRoughnessFactor": 0.1841152436021378,
          "clearcoatRoughnessTexture": {
            "index": 4
          },
          "clearcoatTexture": {
            "index": 3
          }
        }
      },
      "name": "Kintsugi",
      "normalTexture": {
        "index": 2
      },
      "pbrMetallicRoughness": {
        "baseColorTexture": {
          "index": 0
        },
        "metallicRoughnessTexture": {
          "index": 1
        }
      }
    },
    {
      "doubleSided": true,
      "extensions": {
        "KHR_materials_clearcoat": {
          "clearcoatFactor": 1.0,
          "clearcoatRoughnessFactor": 0.3421997458487618
        }
      },
      "name": "Coffee",
      "normalTexture": {
        "index": 6,
        "scale": 0.4
      },
      "pbrMetallicRoughness": {
        "baseColorTexture": {
          "index": 6
        },
        "metallicFactor": 0.0,
        "metallicRoughnessTexture": {
          "index": 7
        },
        "roughnessFactor": 0.6644489235053415
      }
    },
    {
      "doubleSided": true,
      "name": "Ground",
      "pbrMetallicRoughness": {
        "baseColorFactor": [
          0.0037675868070749965,
          0.025191469456802472,
          0.023474415525082875,
          1.0
        ],
        "metallicFactor": 0.0,
        "roughnessFactor": 0.454545
      }
    }
  ],
  "meshes": [
    {
      "name": "Object_0",
      "primitives": [
        {
          "attributes": {
            "NORMAL": 1,
            "POSITION": 0,
            "TANGENT": 2,
            "TEXCOORD_0": 3,
            "TEXCOORD_1": 4,
            "TEXCOORD_2": 5,
            "TEXCOORD_3": 6
          },
          "indices": 7,
          "material": 0,
          "mode": 4
        }
      ]
    },
    {
      "name": "Object_1",
      "primitives": [
        {
          "attributes": {
            "NORMAL": 9,
            "POSITION": 8,
            "TANGENT": 10,
            "TEXCOORD_0": 11,
            "TEXCOORD_1": 12,
            "TEXCOORD_2": 13,
            "TEXCOORD_3": 14
          },
          "indices": 15,
          "material": 1,
          "mode": 4
        }
      ]
    },
    {
      "name": "Object_2",
      "primitives": [
        {
          "attributes": {
            "NORMAL": 17,
            "POSITION": 16,
            "TEXCOORD_0": 18
          },
          "indices": 19,
          "material": 2,
          "mode": 4
        }
      ]
    }
  ],
  "nodes": [
    {
      "children": [
        1
      ],
      "matrix": [
        1.0,
        0.0,
        0.0,
        0.0,
        0.0,
        2.220446049250313e-16,
        -1.0,
        0.0,
        0.0,
        1.0,
        2.220446049250313e-16,
        0.0,
        0.0,
        0.0,
        0.0,
        1.0
      ],
      "name": "Sketchfab_model"
    },
    {
      "children": [
        2
      ],
      "name": "root"
    },
    {
      "children": [
        3,
        7
      ],
      "matrix": [
        1.0,
        0.0,
        0.0,
        0.0,
        0.0,
        2.220446049250313e-16,
        1.0,
        0.0,
        0.0,
        -1.0,
        2.220446049250313e-16,
        0.0,
        0.0,
        0.0,
        0.0,
        1.0
      ],
      "name": "GLTF_SceneRootNode"
    },
    {
      "children": [
        4,
        5
      ],
      "matrix": [
        0.9995052052978702,
        0.0,
        -0.031453848452333406,
        0.0,
        0.0,
        1.0,
        0.0,
        0.0,
        0.031453848452333406,
        0.0,
        0.9995052052978702,
        0.0,
        0.0,
        0.0,
        0.0,
        1.0
      ],
      "name": "Cup_1"
    },
    {
      "mesh": 0,
      "name": "Object_4"
    },
    {
      "children": [
        6
      ],
      "matrix": [
        -0.7631903757568297,
        0.0,
        0.7380723917106712,
        0.0,
        0.0,
        1.0617015361785889,
        0.0,
        0.0,
        -0.7380723917106712,
        0.0,
        -0.7631903757568297,
        0.0,
        0.0,
        1.0617015361785889,
        0.0,
        1.0
      ],
      "name": "Coffee_0"
    },
    {
      "mesh": 1,
      "name": "Object_6"
    },
    {
      "children": [
        8
      ],
      "matrix": [
        1.0,
        0.0,
        0.0,
        0.0,
        0.0,
        1.0,
        0.0,
        0.0,
        0.0,
        0.0,
        1.0,
        0.0,
        -4.279709339141846,
        0.0,
        -4.743857383728027,
        1.0
      ],
      "name": "Ground_2"
    },
    {
      "mesh": 2,
      "name": "Object_8"
    }
  ],
  "samplers": [
    {
      "magFilter": 9729,
      "minFilter": 9987,
      "wrapS": 10497,
      "wrapT": 10497
    }
  ],
  "scene": 0,
  "scenes": [
    {
      "name": "Sketchfab_Scene",
      "nodes": [
        0
      ]
    }
  ],
  "textures": [
    {
      "sampler": 0,
      "source": 0
    },
    {
      "sampler": 0,
      "source": 1
    },
    {
      "sampler": 0,
      "source": 2
    },
    {
      "sampler": 0,
      "source": 3
    },
    {
      "sampler": 0,
      "source": 4
    },
    {
      "sampler": 0,
      "source": 5
    },
    {
      "sampler": 0,
      "source": 6
    },
    {
      "sampler": 0,
      "source": 7
    }
  ]
}
